<?xml version="1.0" standalone="no"?>
<!DOCTYPE svg PUBLIC "-//W3C//DTD SVG 20010904//EN"
 "http://www.w3.org/TR/2001/REC-SVG-20010904/DTD/svg10.dtd">
<svg version="1.0" xmlns="http://www.w3.org/2000/svg"
 width="218.000000pt" height="218.000000pt" viewBox="0 0 218.000000 218.000000"
 preserveAspectRatio="xMidYMid meet">
<metadata>
Created by potrace 1.14, written by Peter Selinger 2001-2017
</metadata>
<g transform="translate(0.000000,218.000000) scale(0.100000,-0.100000)"
fill="#000000" stroke="none">
<path d="M0 1090 l0 -1090 715 0 715 0 -6 26 c-5 20 -3 25 7 22 8 -3 14 -13
14 -24 0 -18 13 -19 368 -22 l367 -2 0 1031 0 1031 -22 -16 c-28 -20 -68 -45
-131 -83 -26 -15 -82 -51 -125 -78 -42 -28 -98 -63 -124 -78 l-47 -27 -21 29
c-14 21 -19 38 -14 55 4 18 2 28 -9 32 -23 8 -40 59 -32 91 12 41 6 65 -20 92
l-23 23 -18 -28 c-15 -22 -18 -44 -16 -94 1 -45 -2 -72 -12 -85 -14 -19 -15
-19 -63 5 -26 13 -75 34 -108 46 -33 13 -59 27 -57 33 1 6 3 16 5 23 1 7 -12
17 -30 23 -42 14 -48 21 -33 40 7 8 10 22 6 30 -3 9 -2 13 4 10 6 -3 10 2 10
12 0 10 3 28 6 41 l6 22 -333 0 -334 0 3 -115 c4 -123 -1 -141 -42 -147 -22
-3 -22 -4 -10 -83 9 -65 9 -96 -3 -170 -20 -120 -25 -129 -71 -120 -21 3 -52
8 -71 10 -121 13 -131 16 -131 41 0 13 4 24 10 24 5 0 12 11 16 24 8 32 58 76
86 75 49 -1 63 7 66 39 3 28 0 31 -30 34 -26 2 -37 11 -55 43 -13 24 -29 39
-38 37 -8 -2 -15 2 -15 7 0 6 -8 7 -17 4 -13 -5 -15 -2 -10 11 4 10 7 20 7 22
0 12 30 2 39 -13 7 -13 9 9 8 74 -2 88 -3 93 -24 93 -37 0 -56 28 -49 72 l6
38 -160 0 -160 0 0 -1090z m1178 1053 c12 -3 22 -10 22 -16 0 -12 -143 -2
-168 12 -19 11 104 14 146 4z m-258 -78 c25 -30 -18 -48 -55 -22 -10 8 -15 19
-11 25 10 17 51 15 66 -3z m-85 -22 c-4 -10 -7 -28 -6 -40 0 -16 -5 -23 -17
-23 -66 1 -45 63 27 79 2 1 0 -7 -4 -16z m30 -63 c3 -5 1 -10 -4 -10 -6 0 -11
5 -11 10 0 6 2 10 4 10 3 0 8 -4 11 -10z m-143 -15 c12 -16 9 -21 -12 -22 -14
-1 -20 4 -20 18 0 19 19 22 32 4z m-492 -95 c0 -5 -5 -10 -11 -10 -5 0 -7 5
-4 10 3 6 8 10 11 10 2 0 4 -4 4 -10z m500 -140 c0 -48 -12 -66 -23 -36 -6 14
10 86 18 86 3 0 5 -22 5 -50z m1000 26 c0 -24 -26 -38 -40 -22 -6 9 -9 20 -5
26 9 15 45 12 45 -4z m-1029 -961 c33 -27 34 -41 1 -31 -21 7 -53 72 -51 104
0 9 5 3 10 -15 5 -17 23 -43 40 -58z m229 61 c0 -8 -6 -21 -12 -28 -7 -7 -14
-22 -16 -32 -5 -26 -27 -46 -52 -46 -17 0 -19 3 -10 19 5 11 16 25 23 33 7 7
21 25 31 41 20 29 36 35 36 13z m166 -11 c-22 -17 -56 -20 -56 -6 0 9 25 17
60 19 11 1 10 -3 -4 -13z m34 -25 c0 -5 -5 -10 -11 -10 -5 0 -8 -4 -5 -9 4 -5
-10 -5 -32 0 -20 5 -41 9 -47 10 -5 1 10 5 35 9 25 4 48 8 53 8 4 1 7 -2 7 -8z
m61 -22 c10 -18 9 -20 -6 -15 -9 4 -23 7 -31 7 -8 0 -11 6 -8 15 9 22 31 18
45 -7z m-103 -23 c37 -7 41 -10 30 -23 -10 -12 -10 -14 0 -8 7 4 12 2 12 -8 0
-10 -7 -13 -25 -10 -25 4 -34 -9 -15 -21 6 -4 9 -14 8 -23 -6 -35 -80 -57 -92
-27 -3 10 1 15 12 15 15 1 15 2 -2 15 -11 8 -27 15 -36 15 -22 0 -55 36 -41
45 6 3 15 4 20 1 5 -4 11 0 14 6 3 10 12 9 35 -4 40 -24 56 -23 35 2 -10 11
-23 20 -31 20 -7 0 -11 4 -8 8 6 9 17 9 84 -3z m488 -34 c-3 -5 1 -11 9 -15 8
-3 15 -16 16 -28 0 -13 3 -18 5 -11 4 8 13 9 30 3 13 -5 24 -6 24 -1 0 4 7 8
15 8 13 0 13 -2 0 -17 -8 -9 -13 -19 -10 -22 3 -3 -4 -13 -15 -23 -26 -23 -28
-60 -2 -50 28 11 34 11 39 -2 3 -9 -5 -13 -24 -14 -29 0 -78 -17 -55 -18 7 -1
-1 -15 -18 -32 -32 -34 -39 -59 -16 -59 28 0 27 -20 -1 -31 -15 -6 -23 -13
-16 -16 21 -8 -5 -63 -30 -63 -18 0 -19 -2 -5 -12 8 -7 18 -21 22 -31 5 -15 2
-17 -17 -11 -12 3 -28 11 -34 16 -9 8 -13 6 -13 -6 0 -9 7 -19 15 -22 9 -4 15
-19 15 -36 0 -16 -4 -27 -9 -24 -5 4 -12 0 -14 -6 -3 -8 -6 -6 -6 5 -2 31 -21
18 -22 -15 l-1 -33 -13 30 -14 30 -1 -30 c-1 -16 -4 -23 -7 -15 -13 34 -25 41
-39 23 -12 -17 -13 -16 -23 10 -7 17 -18 28 -33 29 -13 0 -28 2 -34 2 -6 1
-23 9 -38 19 -15 10 -30 16 -33 14 -2 -3 -32 8 -65 25 -33 16 -69 28 -79 25
-12 -3 -17 -1 -12 6 4 6 0 8 -10 4 -10 -3 -17 -2 -17 3 0 5 -9 12 -20 15 -26
8 -25 18 5 51 19 20 25 23 25 10 0 -9 5 -16 10 -16 6 0 10 7 10 15 0 28 69 88
170 147 25 14 79 58 120 97 75 70 75 71 125 67 28 -2 59 0 70 4 27 11 27 11
21 1z m161 -7 c-3 -3 -12 -4 -19 -1 -8 3 -5 6 6 6 11 1 17 -2 13 -5z m-417
-74 c0 -24 -129 -88 -151 -74 -5 3 -1 16 8 30 13 20 21 24 44 19 18 -4 29 -2
29 4 0 6 11 11 25 11 14 0 25 5 25 10 0 6 5 10 10 10 6 0 10 -4 10 -10z"/>
<path d="M950 730 c0 -13 18 -22 24 -11 3 5 -1 11 -9 15 -8 3 -15 1 -15 -4z"/>
<path d="M1620 669 c0 -5 5 -7 10 -4 6 3 10 8 10 11 0 2 -4 4 -10 4 -5 0 -10
-5 -10 -11z"/>
<path d="M1515 400 c-3 -5 -1 -10 4 -10 6 0 11 5 11 10 0 6 -2 10 -4 10 -3 0
-8 -4 -11 -10z"/>
<path d="M1525 370 c3 -5 8 -10 11 -10 2 0 4 5 4 10 0 6 -5 10 -11 10 -5 0 -7
-4 -4 -10z"/>
</g>
</svg>
